<svg width="58" height="44" viewBox="0 0 58 44" fill="none" xmlns="http://www.w3.org/2000/svg">
<path d="M0 29H4.83333V14.5H0V29ZM7.25 33.8333H12.0833V9.66667H7.25V33.8333ZM53.1667 14.5V29H58V14.5H53.1667ZM45.9167 33.8333H50.75V9.66667H45.9167V33.8333ZM39.875 0H18.125C16.1192 0 14.5 1.61917 14.5 3.625V39.875C14.5 41.8808 16.1192 43.5 18.125 43.5H39.875C41.8808 43.5 43.5 41.8808 43.5 39.875V3.625C43.5 1.61917 41.8808 0 39.875 0ZM38.6667 38.6667H19.3333V4.83333H38.6667V38.6667Z" fill="#A7A7A7"/>
</svg>
