<svg width="35" height="35" viewBox="0 0 35 35" fill="none" xmlns="http://www.w3.org/2000/svg">
<path d="M5.83333 0H0V5.83333C3.22778 5.83333 5.83333 3.22778 5.83333 0ZM21.3889 0H17.5C17.5 9.66389 9.66389 17.5 0 17.5V21.3889C11.8222 21.3889 21.3889 11.8028 21.3889 0ZM13.6111 0H9.72222C9.72222 5.36667 5.36667 9.72222 0 9.72222V13.6111C7.525 13.6111 13.6111 7.525 13.6111 0ZM13.6111 35H17.5C17.5 25.3361 25.3361 17.5 35 17.5V13.6111C23.1972 13.6111 13.6111 23.1972 13.6111 35ZM29.1667 35H35V29.1667C31.7722 29.1667 29.1667 31.7722 29.1667 35ZM21.3889 35H25.2778C25.2778 29.6333 29.6333 25.2778 35 25.2778V21.3889C27.475 21.3889 21.3889 27.475 21.3889 35Z" fill="#A7A7A7"/>
</svg>
