<svg width="230" height="91" viewBox="0 0 230 91" fill="none" xmlns="http://www.w3.org/2000/svg">
<g filter="url(#filter0_d_1_6438)">
<path d="M-2.19345e-05 78.9444C-2.19345e-05 81.4903 2.06389 83.5543 4.60986 83.5543C7.15583 83.5543 9.21975 81.4903 9.21975 78.9444C9.21975 76.3984 7.15583 74.3345 4.60986 74.3345C2.06389 74.3345 -2.19345e-05 76.3984 -2.19345e-05 78.9444ZM220.41 4.6099C220.41 7.15587 222.474 9.21978 225.02 9.21978C227.566 9.21978 229.63 7.15587 229.63 4.6099C229.63 2.06393 227.566 1.38283e-05 225.02 1.38283e-05C222.474 1.38283e-05 220.41 2.06393 220.41 4.6099ZM4.60986 78.9444L4.54002 79.8059C33.8982 82.1858 55.9429 78.4424 74.1179 71.5303C92.2803 64.6231 106.534 54.5668 120.297 44.4083C147.808 24.1025 173.451 3.32692 224.984 5.4735L225.02 4.6099L225.056 3.74629C172.867 1.5724 146.79 22.7053 119.27 43.0174C105.518 53.1679 91.4274 63.098 73.5034 69.9145C55.592 76.7263 33.8077 80.4441 4.6797 78.0828L4.60986 78.9444Z" fill="#082D07"/>
</g>
<defs>
<filter id="filter0_d_1_6438" x="0" y="0" width="229.63" height="90.4691" filterUnits="userSpaceOnUse" color-interpolation-filters="sRGB">
<feFlood flood-opacity="0" result="BackgroundImageFix"/>
<feColorMatrix in="SourceAlpha" type="matrix" values="0 0 0 0 0 0 0 0 0 0 0 0 0 0 0 0 0 0 127 0" result="hardAlpha"/>
<feOffset dy="6.91483"/>
<feComposite in2="hardAlpha" operator="out"/>
<feColorMatrix type="matrix" values="0 0 0 0 0 0 0 0 0 0 0 0 0 0 0 0 0 0 0.25 0"/>
<feBlend mode="normal" in2="BackgroundImageFix" result="effect1_dropShadow_1_6438"/>
<feBlend mode="normal" in="SourceGraphic" in2="effect1_dropShadow_1_6438" result="shape"/>
</filter>
</defs>
</svg>
