<svg width="35" height="54" viewBox="0 0 35 54" fill="none" xmlns="http://www.w3.org/2000/svg">
<path d="M0 36.4675C0 46.1605 7.825 54 17.5 54C27.175 54 35 46.1605 35 36.4675V26.449H0V36.4675ZM27.8 7.33859L33.05 2.07885L31 0L25.25 5.78571C22.9 4.60853 20.3 3.90724 17.5 3.90724C14.7 3.90724 12.1 4.60853 9.775 5.78571L4 0L1.95 2.07885L7.2 7.33859C2.85 10.5195 0 15.6289 0 21.4397V23.9443H35V21.4397C35 15.6289 32.15 10.5195 27.8 7.33859ZM10 18.9351C8.625 18.9351 7.5 17.808 7.5 16.4304C7.5 15.0529 8.625 13.9258 10 13.9258C11.375 13.9258 12.5 15.0529 12.5 16.4304C12.5 17.808 11.375 18.9351 10 18.9351ZM25 18.9351C23.625 18.9351 22.5 17.808 22.5 16.4304C22.5 15.0529 23.625 13.9258 25 13.9258C26.375 13.9258 27.5 15.0529 27.5 16.4304C27.5 17.808 26.375 18.9351 25 18.9351Z" fill="#A7A7A7"/>
</svg>
